# xmcd
#
# Track frame offsets:
#	150
#	19343
#	32802
#	59603
#	75448
#	98570
#	121097
#	137242
#	154946
#	175350
#	190810
#	214543
#
# Disc length: 3063 seconds
#
# Revision: 0
# Processed by: cddbd v1.5.1PL0 Copyright (c) Steve Scherf et al.
# Submitted via: dBpowerAMP V4.0
#
DISCID=9d0bf50c
DTITLE=Whiteley, Chris - It's The Natural Thing To Do
DYEAR=1900
DGENRE=Blues
TTITLE0=Morning, Moon and Might
TTITLE1=Any Old Way
TTITLE2=Forgetful Baby
TTITLE3=I've Got To Split
TTITLE4=Quicksand
TTITLE5=Guess This Is Really Goodbye
TTITLE6=Maybe It's Because Of Love
TTITLE7=My Ex-Fiance Twice Removed
TTITLE8=Learnin' The Blues
TTITLE9=Blues For Two
TTITLE10=On My Way
TTITLE11=It's The Natural Thing To Do
EXTD=
EXTT0=
EXTT1=
EXTT2=
EXTT3=
EXTT4=
EXTT5=
EXTT6=
EXTT7=
EXTT8=
EXTT9=
EXTT10=
EXTT11=
PLAYORDER=
